<mxfile host="app.diagrams.net" modified="2021-09-27T11:50:44.909Z" agent="5.0 (X11; Linux x86_64) AppleWebKit/537.36 (KHTML, like Gecko) Chrome/94.0.4606.61 Safari/537.36 Edg/94.0.992.31" etag="s8W2uBqFT7xrnr7ikXUw" version="15.2.9" type="github">
  <diagram id="pyqLne2hM9_6e8NJ83Q8" name="Page-1">
    <mxGraphModel dx="1185" dy="667" grid="1" gridSize="10" guides="1" tooltips="1" connect="1" arrows="1" fold="1" page="1" pageScale="1" pageWidth="827" pageHeight="1169" math="0" shadow="0">
      <root>
        <mxCell id="0" />
        <mxCell id="1" parent="0" />
        <mxCell id="WrOhdtvvq9HQcneKHNoh-1" value="&lt;font style=&quot;font-size: 19px&quot;&gt;pt(or pth)&lt;/font&gt;" style="ellipse;whiteSpace=wrap;html=1;strokeWidth=2;fillWeight=2;hachureGap=8;fillColor=#fff2cc;fillStyle=auto;sketch=1;strokeColor=#d6b656;" vertex="1" parent="1">
          <mxGeometry x="40" y="160" width="120" height="60" as="geometry" />
        </mxCell>
        <mxCell id="WrOhdtvvq9HQcneKHNoh-2" value="&lt;font style=&quot;font-size: 19px&quot;&gt;python net&lt;/font&gt;" style="ellipse;whiteSpace=wrap;html=1;strokeWidth=2;fillWeight=2;hachureGap=8;fillColor=#ffe6cc;fillStyle=auto;sketch=1;strokeColor=#d79b00;" vertex="1" parent="1">
          <mxGeometry x="40" y="280" width="120" height="60" as="geometry" />
        </mxCell>
        <mxCell id="WrOhdtvvq9HQcneKHNoh-3" value="" style="endArrow=classic;html=1;exitX=1;exitY=0.5;exitDx=0;exitDy=0;" edge="1" parent="1" source="WrOhdtvvq9HQcneKHNoh-1">
          <mxGeometry width="50" height="50" relative="1" as="geometry">
            <mxPoint x="200" y="210" as="sourcePoint" />
            <mxPoint x="240" y="240" as="targetPoint" />
          </mxGeometry>
        </mxCell>
        <mxCell id="WrOhdtvvq9HQcneKHNoh-10" value="&lt;font style=&quot;font-size: 14px&quot;&gt;torch.load&lt;/font&gt;" style="edgeLabel;html=1;align=center;verticalAlign=middle;resizable=0;points=[];" vertex="1" connectable="0" parent="WrOhdtvvq9HQcneKHNoh-3">
          <mxGeometry x="0.2494" y="4" relative="1" as="geometry">
            <mxPoint x="-12" as="offset" />
          </mxGeometry>
        </mxCell>
        <mxCell id="WrOhdtvvq9HQcneKHNoh-7" value="" style="edgeStyle=orthogonalEdgeStyle;rounded=0;orthogonalLoop=1;jettySize=auto;html=1;" edge="1" parent="1" source="WrOhdtvvq9HQcneKHNoh-4" target="WrOhdtvvq9HQcneKHNoh-6">
          <mxGeometry relative="1" as="geometry" />
        </mxCell>
        <mxCell id="WrOhdtvvq9HQcneKHNoh-12" value="&lt;font style=&quot;font-size: 15px&quot;&gt;trace/script&lt;/font&gt;" style="edgeLabel;html=1;align=center;verticalAlign=middle;resizable=0;points=[];" vertex="1" connectable="0" parent="WrOhdtvvq9HQcneKHNoh-7">
          <mxGeometry x="0.2167" relative="1" as="geometry">
            <mxPoint x="-13" as="offset" />
          </mxGeometry>
        </mxCell>
        <mxCell id="WrOhdtvvq9HQcneKHNoh-4" value="&lt;font style=&quot;font-size: 17px&quot;&gt;pytorch model&lt;/font&gt;" style="rounded=1;whiteSpace=wrap;html=1;strokeWidth=2;fillWeight=4;hachureGap=8;hachureAngle=45;fillColor=#d5e8d4;sketch=1;strokeColor=#82b366;" vertex="1" parent="1">
          <mxGeometry x="240" y="230" width="120" height="60" as="geometry" />
        </mxCell>
        <mxCell id="WrOhdtvvq9HQcneKHNoh-5" value="" style="endArrow=classic;html=1;entryX=0;entryY=0.75;entryDx=0;entryDy=0;" edge="1" parent="1" target="WrOhdtvvq9HQcneKHNoh-4">
          <mxGeometry width="50" height="50" relative="1" as="geometry">
            <mxPoint x="160" y="310" as="sourcePoint" />
            <mxPoint x="210" y="260" as="targetPoint" />
          </mxGeometry>
        </mxCell>
        <mxCell id="WrOhdtvvq9HQcneKHNoh-9" value="" style="edgeStyle=orthogonalEdgeStyle;rounded=0;orthogonalLoop=1;jettySize=auto;html=1;" edge="1" parent="1" source="WrOhdtvvq9HQcneKHNoh-6" target="WrOhdtvvq9HQcneKHNoh-8">
          <mxGeometry relative="1" as="geometry" />
        </mxCell>
        <mxCell id="WrOhdtvvq9HQcneKHNoh-13" value="onnx" style="edgeLabel;html=1;align=center;verticalAlign=middle;resizable=0;points=[];" vertex="1" connectable="0" parent="WrOhdtvvq9HQcneKHNoh-9">
          <mxGeometry x="0.2167" y="-2" relative="1" as="geometry">
            <mxPoint x="-13" y="-2" as="offset" />
          </mxGeometry>
        </mxCell>
        <mxCell id="WrOhdtvvq9HQcneKHNoh-6" value="&lt;font style=&quot;font-size: 18px&quot;&gt;pt&lt;/font&gt;" style="whiteSpace=wrap;html=1;rounded=1;strokeWidth=2;fillColor=#f8cecc;sketch=1;fillWeight=4;hachureGap=8;hachureAngle=45;strokeColor=#b85450;" vertex="1" parent="1">
          <mxGeometry x="480" y="230" width="120" height="60" as="geometry" />
        </mxCell>
        <mxCell id="WrOhdtvvq9HQcneKHNoh-8" value="&lt;font style=&quot;font-size: 18px&quot;&gt;onnx&lt;/font&gt;" style="whiteSpace=wrap;html=1;rounded=1;strokeWidth=2;fillColor=#e1d5e7;sketch=1;fillWeight=4;hachureGap=8;hachureAngle=45;strokeColor=#9673a6;" vertex="1" parent="1">
          <mxGeometry x="720" y="230" width="120" height="60" as="geometry" />
        </mxCell>
        <mxCell id="WrOhdtvvq9HQcneKHNoh-11" value="权值文件" style="text;html=1;strokeColor=none;fillColor=none;align=center;verticalAlign=middle;whiteSpace=wrap;rounded=0;" vertex="1" parent="1">
          <mxGeometry x="70" y="130" width="60" height="20" as="geometry" />
        </mxCell>
        <mxCell id="WrOhdtvvq9HQcneKHNoh-16" value="" style="endArrow=none;html=1;dashed=1;" edge="1" parent="1">
          <mxGeometry width="50" height="50" relative="1" as="geometry">
            <mxPoint x="420" y="440" as="sourcePoint" />
            <mxPoint x="420" y="160" as="targetPoint" />
          </mxGeometry>
        </mxCell>
        <mxCell id="WrOhdtvvq9HQcneKHNoh-17" value="" style="endArrow=none;html=1;dashed=1;" edge="1" parent="1">
          <mxGeometry width="50" height="50" relative="1" as="geometry">
            <mxPoint x="660" y="440" as="sourcePoint" />
            <mxPoint x="660" y="160" as="targetPoint" />
          </mxGeometry>
        </mxCell>
        <mxCell id="WrOhdtvvq9HQcneKHNoh-18" value="网络文件" style="text;html=1;strokeColor=none;fillColor=none;align=center;verticalAlign=middle;whiteSpace=wrap;rounded=0;" vertex="1" parent="1">
          <mxGeometry x="70" y="250" width="60" height="20" as="geometry" />
        </mxCell>
        <mxCell id="WrOhdtvvq9HQcneKHNoh-19" value="Eager Mode" style="text;html=1;strokeColor=none;fillColor=none;align=center;verticalAlign=middle;whiteSpace=wrap;rounded=0;" vertex="1" parent="1">
          <mxGeometry x="200" y="400" width="160" height="40" as="geometry" />
        </mxCell>
        <mxCell id="WrOhdtvvq9HQcneKHNoh-20" value="JIT Mode(图概念)" style="text;html=1;strokeColor=none;fillColor=none;align=center;verticalAlign=middle;whiteSpace=wrap;rounded=0;" vertex="1" parent="1">
          <mxGeometry x="460" y="400" width="160" height="40" as="geometry" />
        </mxCell>
        <mxCell id="WrOhdtvvq9HQcneKHNoh-21" value="" style="endArrow=classic;html=1;dashed=1;" edge="1" parent="1">
          <mxGeometry width="50" height="50" relative="1" as="geometry">
            <mxPoint x="780" y="440" as="sourcePoint" />
            <mxPoint x="560" y="580" as="targetPoint" />
          </mxGeometry>
        </mxCell>
        <mxCell id="WrOhdtvvq9HQcneKHNoh-22" value="" style="endArrow=classic;html=1;dashed=1;exitX=0.5;exitY=1;exitDx=0;exitDy=0;" edge="1" parent="1" source="WrOhdtvvq9HQcneKHNoh-19">
          <mxGeometry width="50" height="50" relative="1" as="geometry">
            <mxPoint x="260" y="455" as="sourcePoint" />
            <mxPoint x="520" y="580" as="targetPoint" />
          </mxGeometry>
        </mxCell>
        <mxCell id="WrOhdtvvq9HQcneKHNoh-23" value="" style="endArrow=classic;html=1;dashed=1;exitX=0.5;exitY=1;exitDx=0;exitDy=0;" edge="1" parent="1" source="WrOhdtvvq9HQcneKHNoh-20">
          <mxGeometry width="50" height="50" relative="1" as="geometry">
            <mxPoint x="790" y="450" as="sourcePoint" />
            <mxPoint x="540" y="580" as="targetPoint" />
          </mxGeometry>
        </mxCell>
        <mxCell id="WrOhdtvvq9HQcneKHNoh-25" value="都能用于部署" style="text;html=1;strokeColor=none;fillColor=none;align=center;verticalAlign=middle;whiteSpace=wrap;rounded=0;" vertex="1" parent="1">
          <mxGeometry x="480" y="585" width="120" height="55" as="geometry" />
        </mxCell>
      </root>
    </mxGraphModel>
  </diagram>
</mxfile>
